# xmcd CD database file
#
# Track frame offsets:
#	150
#	36865
#	69640
#	126010
#	154957
#	193747
#	210237
#	255820
#	298070
#
# Disc length: 4516 seconds
#
# Revision: 0
# Processed by: cddbd v1.5PL3 Copyright (c) Steve Scherf et al.
# Submitted via: CDex 1.50Beta7
#
DISCID=7e11a209
DTITLE=Stefan Heidtman Project - Hay que salir adelante
DYEAR=2003
DGENRE=Jazz
TTITLE0=Pendulum 5
TTITLE1=Dunst
TTITLE2=Cuauhtémoc
TTITLE3=Xotchimilco Gardens
TTITLE4=Comdesa
TTITLE5=Jemeli
TTITLE6=Ballad for G.
TTITLE7=Ambivalence II
TTITLE8=Hay que salir adelante
EXTD=YEAR: 2003
EXTT0=
EXTT1=
EXTT2=
EXTT3=
EXTT4=
EXTT5=
EXTT6=
EXTT7=
EXTT8=
PLAYORDER=
